# Blender 4.2.1 LTS
# www.blender.org
mtllib mountain.mtl
o Plane
v -11.755206 0.000000 11.755206
v 11.755206 0.000000 11.755206
v -11.755206 0.000000 -11.755206
v 11.755206 0.000000 -11.755206
v -11.755206 3.034332 0.000000
v 11.755206 3.034332 0.000000
vn -0.0000 0.9683 -0.2499
vn -0.0000 0.9683 0.2499
vt 0.000000 0.500000
vt 1.000000 0.500000
vt 1.000000 1.000000
vt 0.000000 1.000000
vt 0.000000 0.000000
vt 1.000000 0.000000
s 0
usemtl Material
f 5/1/1 6/2/1 4/3/1 3/4/1
f 1/5/2 2/6/2 6/2/2 5/1/2
