# Blender 3.6.2
# www.blender.org
mtllib mountain_plane.mtl
o Plane
v -10.000000 0.000001 10.000000
v 10.000000 0.000001 10.000000
v -10.000000 -0.000001 -10.000000
v 10.000000 -0.000001 -10.000000
v -10.000000 1.108588 0.000000
v 10.000000 1.108588 0.000000
vn -0.0000 0.9939 -0.1102
vn -0.0000 0.9939 0.1102
vt 0.000000 0.500000
vt 1.000000 0.500000
vt 1.000000 1.000000
vt 0.000000 1.000000
vt 0.000000 0.000000
vt 1.000000 0.000000
s 0
usemtl Material.001
f 5/1/1 6/2/1 4/3/1 3/4/1
f 1/5/2 2/6/2 6/2/2 5/1/2
